<?xml version="1.0" encoding="UTF-8"?>
<svg width="22px" height="26px" viewBox="0 0 22 26" version="1.1" xmlns="http://www.w3.org/2000/svg" xmlns:xlink="http://www.w3.org/1999/xlink">
    <!-- Generator: Sketch 49.3 (51167) - http://www.bohemiancoding.com/sketch -->
    <title>Group 5</title>
    <desc>Created with Sketch.</desc>
    <defs></defs>
    <g id="A-Migration-Engineer" stroke="none" stroke-width="1" fill="none" fill-rule="evenodd">
        <g id="A2_Migration-Engineer-V2" transform="translate(-47.000000, -461.000000)" fill="#FFFFFF" fill-rule="nonzero">
            <g id="Group-5" transform="translate(47.000000, 461.000000)">
                <path d="M21.8694586,6.67184186 C21.8560884,5.97226047 21.843326,5.31137674 21.843326,4.6720186 C21.843326,4.17112558 21.4352928,3.76504186 20.9317238,3.76504186 C17.033105,3.76504186 14.0648066,2.65030698 11.5905967,0.256855814 C11.2366519,-0.0856186047 10.6734033,-0.0854976744 10.3195801,0.256855814 C7.84561326,2.65030698 4.8778011,3.76504186 0.979425414,3.76504186 C0.475977901,3.76504186 0.0678232044,4.17112558 0.0678232044,4.6720186 C0.0678232044,5.31149767 0.0551823204,5.97262326 0.0416906077,6.67232558 C-0.0832596685,13.1827256 -0.25439779,22.0990326 10.6565083,25.8617767 C10.7532597,25.8951535 10.8541436,25.9118419 10.9550276,25.9118419 C11.0559116,25.9118419 11.1569171,25.8951535 11.253547,25.8617767 C22.1653039,22.0989116 21.9944088,13.1823628 21.8694586,6.67184186 Z M10.9551492,24.0423814 C1.59761326,20.6603256 1.73909392,13.2515349 1.86465193,6.70691163 C1.87218785,6.31413023 1.87948066,5.93344186 1.88458564,5.56025116 C5.53585635,5.40691163 8.45565746,4.30608372 10.9551492,2.13973953 C13.454884,4.30608372 16.3751713,5.40703256 20.0266851,5.56025116 C20.0317901,5.93332093 20.0390829,6.31376744 20.0466188,6.70630698 C20.1720552,13.2511721 20.3134144,20.6602047 10.9551492,24.0423814 Z" id="Shape"></path>
                <path d="M14.0943425,9.80526512 L9.69446409,14.1825767 L7.81692818,12.3145674 C7.46091713,11.9604837 6.88369061,11.9604837 6.5278011,12.3145674 C6.17179006,12.668893 6.17179006,13.2430698 6.5278011,13.5972744 L9.04990055,16.1065767 C9.2278453,16.2836186 9.46121547,16.3721395 9.69446409,16.3721395 C9.92771271,16.3721395 10.1610829,16.2836186 10.3390276,16.1065767 L15.3833481,11.0879721 C15.7394807,10.7337674 15.7394807,10.1594698 15.3834696,9.80538605 C15.0275801,9.4511814 14.4503536,9.45106047 14.0943425,9.80526512 Z" id="Shape"></path>
            </g>
        </g>
    </g>
</svg>