<?xml version="1.0" encoding="UTF-8"?>
<svg width="30px" height="30px" viewBox="0 0 30 30" version="1.1" xmlns="http://www.w3.org/2000/svg" xmlns:xlink="http://www.w3.org/1999/xlink">
    <!-- Generator: Sketch 49.3 (51167) - http://www.bohemiancoding.com/sketch -->
    <title>Group 11</title>
    <desc>Created with Sketch.</desc>
    <defs></defs>
    <g id="A-Migration-Engineer" stroke="none" stroke-width="1" fill="none" fill-rule="evenodd">
        <g id="A2_Migration-Engineer-V2" transform="translate(-47.000000, -225.000000)" fill="#000000" fill-rule="nonzero">
            <g id="Group-11" transform="translate(47.000000, 225.000000)">
                <path d="M15,0 C6.71571429,0 0,6.71571429 0,15 C0,23.2842857 6.71571429,30 15,30 C23.2842857,30 30,23.2842857 30,15 C30,6.71571429 23.2842857,0 15,0 Z M15,27.8571429 C7.89964286,27.8571429 2.14285714,22.1003571 2.14285714,15 C2.14285714,7.89964286 7.89964286,2.14285714 15,2.14285714 C22.1003571,2.14285714 27.8571429,7.89964286 27.8571429,15 C27.8571429,22.1003571 22.1003571,27.8571429 15,27.8571429 Z" id="Shape"></path>
                <path d="M6.66642857,23.3325 C6.66642857,23.3325 16.1357143,19.9221429 18.03,18.03 C19.9242857,16.1357143 23.3325,6.66642857 23.3325,6.66642857 C23.3325,6.66642857 13.8632143,10.0767857 11.97,11.97 C10.0767857,13.8632143 6.66642857,23.3325 6.66642857,23.3325 Z M13.485,13.485 L16.515,16.515 C17.2725,17.2725 9.6975,20.3025 9.6975,20.3025 C9.6975,20.3025 12.7275,12.7275 13.485,13.485 Z" id="Shape"></path>
            </g>
        </g>
    </g>
</svg>