<?xml version="1.0" encoding="UTF-8"?>
<svg width="28px" height="23px" viewBox="0 0 28 23" version="1.1" xmlns="http://www.w3.org/2000/svg" xmlns:xlink="http://www.w3.org/1999/xlink">
    <!-- Generator: Sketch 49.3 (51167) - http://www.bohemiancoding.com/sketch -->
    <title>dashboard (5)</title>
    <desc>Created with Sketch.</desc>
    <defs></defs>
    <g id="A-Migration-Engineer" stroke="none" stroke-width="1" fill="none" fill-rule="evenodd">
        <g id="A2_Migration-Engineer-V2" transform="translate(-48.000000, -150.000000)" fill="#ffffff" fill-rule="nonzero">
            <g id="dashboard-(5)" transform="translate(48.000000, 150.000000)">
                <path d="M23.7968828,4.23040625 C23.4252266,3.85880469 22.841875,3.80400781 22.4074375,4.10003125 C20.7708594,5.21554687 12.5620469,10.8248984 11.6798281,11.7070625 C10.4004687,12.9864766 10.4004687,15.0681016 11.6798281,16.3475156 C12.3195078,16.9871406 13.1598359,17.3070078 14.0000547,17.3070078 C14.8402734,17.3070078 15.6805469,16.9871406 16.3202812,16.3475156 C17.2024453,15.4652969 22.8117422,7.25648437 23.9273125,5.61990625 C24.2232266,5.18552344 24.1684844,4.60211719 23.7968828,4.23040625 Z M14.7733906,14.8006797 C14.3469922,15.2271875 13.6530625,15.2271875 13.2266641,14.8006797 C12.8002109,14.3742813 12.8001562,13.6805703 13.2264453,13.2541172 C13.5692266,12.9153828 15.8998438,11.2532109 18.7673281,9.26001563 C16.7741875,12.1275 15.1120156,14.4580078 14.7733906,14.8006797 Z" id="Shape"></path>
                <path d="M5.04388281,19.1145391 L3.69364844,19.7731953 C2.70566406,18.0099609 2.1875,16.0419219 2.1875,14.0272891 C2.1875,12.5512188 2.45967969,11.1374922 2.95640625,9.8336875 L4.50357031,10.5757969 C4.65614844,10.6489687 4.81720313,10.6836406 4.97585156,10.6836406 C5.3834375,10.6836406 5.77472656,10.4547734 5.96279688,10.0626641 C6.22398437,9.51803125 5.99429687,8.86467969 5.44960938,8.6034375 L3.92207812,7.87073438 C5.82066406,4.77432813 9.10557813,2.61553906 12.9063047,2.26499219 L12.9063047,3.91004688 C12.9063047,4.514125 13.3959766,5.00379688 14.0000547,5.00379688 C14.6041328,5.00379688 15.0938047,4.514125 15.0938047,3.91004688 L15.0938047,2.26417187 C16.3968984,2.38278906 17.6577734,2.71463281 18.8547187,3.25494531 C19.4051484,3.5035 20.0530313,3.25855469 20.3015859,2.708125 C20.5501406,2.15753125 20.3053047,1.50975781 19.7547109,1.26120313 C17.9409453,0.442476562 16.0047891,0.0272890625 14,0.0272890625 C10.2604688,0.0272890625 6.74477344,1.48350781 4.10046875,4.12775781 C1.45627344,6.7720625 0,10.2877578 0,14.0272891 C0,16.7906484 0.820203125,19.4782109 2.37196094,21.7992031 C2.58097656,22.1117422 2.92654688,22.2851562 3.28190625,22.2851562 C3.44345313,22.2851562 3.60707813,22.2493359 3.76080469,22.1743594 L6.00299219,21.0806094 C6.54592969,20.8157578 6.77135156,20.1609844 6.5065,19.6180469 C6.24164844,19.0751641 5.58682031,18.8497969 5.04388281,19.1145391 Z" id="Shape"></path>
                <path d="M26.7660313,8.27263281 C26.5175313,7.72209375 25.8698672,7.47709375 25.3191094,7.72575781 C24.7685703,7.9743125 24.5237344,8.62208594 24.7722891,9.172625 C25.4625547,10.7015781 25.8125,12.3349297 25.8125,14.0272891 C25.8125,16.0449297 25.2926406,18.0161406 24.3017578,19.7813984 L22.8920781,19.1101094 C22.3467891,18.8504531 21.6940938,19.0819453 21.4343281,19.6273984 C21.1746172,20.1727422 21.4062188,20.8254375 21.9516172,21.0851484 L24.2484922,22.1788984 C24.3995938,22.2508125 24.5597734,22.2852109 24.7181484,22.2852109 C25.0736172,22.2852109 25.4192422,22.1115781 25.6279844,21.7992578 C27.1797969,19.4782109 28,16.7906484 28,14.0272891 C28,12.0225 27.5848125,10.0863437 26.7660313,8.27263281 Z" id="Shape"></path>
            </g>
        </g>
    </g>
</svg>