<?xml version="1.0" encoding="UTF-8"?>
<svg width="24px" height="26px" viewBox="0 0 24 26" version="1.1" xmlns="http://www.w3.org/2000/svg" xmlns:xlink="http://www.w3.org/1999/xlink">
    <!-- Generator: Sketch 49.3 (51167) - http://www.bohemiancoding.com/sketch -->
    <title>Group 4</title>
    <desc>Created with Sketch.</desc>
    <defs></defs>
    <g id="A-Migration-Engineer" stroke="none" stroke-width="1" fill="none" fill-rule="evenodd">
        <g id="A2_Migration-Engineer-V2" transform="translate(-47.000000, -383.000000)" fill="#000000" fill-rule="nonzero">
            <g id="Group-4" transform="translate(47.000000, 383.000000)">
                <path d="M23.9433962,24.7518013 L23.9433962,8.02465313 C23.9433962,7.75662124 23.8311509,7.50439195 23.6386981,7.330953 L15.8924717,0.252229298 C15.7160377,0.094592942 15.4754717,0 15.2349057,0 L3.25471698,0 C2.7254717,0 2.29245283,0.425668239 2.29245283,0.94592942 L2.29245283,11.5087894 C2.29245283,12.0290506 2.7254717,12.4547188 3.25471698,12.4547188 C3.78396226,12.4547188 4.21698113,12.0290506 4.21698113,11.5087894 L4.21698113,1.89185884 L13.9999811,1.89185884 L13.9999811,9.14396585 C13.9999811,9.66422703 14.433,10.0898953 14.9622453,10.0898953 L21.8584528,10.0898953 C21.906566,10.0898953 21.9706981,10.0898953 22.0188113,10.0741483 L22.0188113,23.8058719 L4.21698113,23.8058719 L4.21698113,20.0221542 C4.21698113,19.501893 3.78396226,19.0762248 3.25471698,19.0762248 C2.7254717,19.0762248 2.29245283,19.501893 2.29245283,20.0221542 L2.29245283,24.7518013 C2.29245283,25.2720625 2.7254717,25.6977307 3.25471698,25.6977307 L22.9811321,25.6977307 C23.5103774,25.6977307 23.9433962,25.2720625 23.9433962,24.7518013 Z M15.9245094,2.86933779 L21.7462075,8.19809207 L15.9245094,8.19809207 L15.9245094,2.86933779 Z" id="Shape"></path>
                <path d="M0.0471509434,15.6078354 C0.0471509434,16.1280966 0.480169811,16.5537648 1.00941509,16.5537648 L11.0329811,16.5537648 L7.93771698,19.2654106 C7.53679245,19.6122329 7.50469811,20.2113401 7.85750943,20.6054588 C8.04996226,20.8103916 8.30654717,20.9207871 8.57920755,20.9207871 C8.80375472,20.9207871 9.02824528,20.8419411 9.22069811,20.6843048 L14.2244717,16.3014799 C14.4329434,16.128041 14.5452453,15.8600647 14.5452453,15.5920328 C14.5452453,15.324001 14.433,15.0717717 14.2244717,14.8825858 L9.22075472,10.4998166 C8.81983019,10.1529943 8.21037736,10.1844882 7.85756604,10.5786626 C7.50475472,10.9727813 7.53679245,11.5718885 7.93777358,11.9187107 L11.0811509,14.661906 L1.00941509,14.661906 C0.480169811,14.661906 0.0471509434,15.0875742 0.0471509434,15.6078354 Z" id="Shape"></path>
            </g>
        </g>
    </g>
</svg>