<?xml version="1.0" encoding="UTF-8"?>
<svg width="218px" height="179px" viewBox="0 0 218 179" version="1.1" xmlns="http://www.w3.org/2000/svg" xmlns:xlink="http://www.w3.org/1999/xlink">
    <!-- Generator: Sketch 49.3 (51167) - http://www.bohemiancoding.com/sketch -->
    <title>Group 13</title>
    <desc>Created with Sketch.</desc>
    <defs></defs>
    <g id="A-Migration-Engineer" stroke="none" stroke-width="1" fill="none" fill-rule="evenodd">
        <g id="A0_Migration-Engineer-V1" transform="translate(0.000000, -621.000000)" fill-rule="nonzero">
            <rect id="Rectangle-2-Copy-7" fill="#FFFFFF" x="0" y="86" width="1366" height="715"></rect>
            <g id="Group-13" opacity="0.03" transform="translate(-142.000000, 621.000000)" fill="#0E3570">
                <path d="M269.955,180 L254.985,180 C254.985,156.72 255.885,153.375 241.785,150.105 C220.215,145.125 199.83,140.43 192.39,124.17 C189.69,118.23 187.875,108.45 194.715,95.565 C210.03,66.63 213.87,41.82 205.245,27.495 C195.165,10.77 164.64,10.695 154.47,27.75 C145.83,42.27 149.73,66.945 165.165,95.43 C172.14,108.27 170.385,118.08 167.685,124.05 C160.335,140.385 140.145,145.05 118.755,149.97 C104.025,153.375 104.955,156.495 104.955,180 L90.03,180 L90,170.655 C90,151.77 91.5,140.88 113.82,135.72 C139.05,129.885 163.98,124.68 151.995,102.585 C116.505,37.11 141.855,0 179.97,0 C217.35,0 243.375,35.745 207.975,102.585 C196.35,124.545 220.335,129.765 246.15,135.72 C268.5,140.88 269.985,151.8 269.985,170.715 L269.955,180 Z M342.105,146.79 C322.77,142.32 304.77,138.405 313.485,121.935 C340.035,71.805 320.535,45 292.485,45 C273.51,45 258.765,57.255 258.765,79.875 C258.765,98.91 267.375,112.5 272.325,123.75 L288.045,123.75 C285.495,112.5 266.055,85.32 276.555,67.71 C282.735,57.33 302.115,57.315 308.265,67.53 C313.965,76.995 310.98,94.71 300.255,114.945 C294.435,125.94 296.055,134.46 298.44,139.665 C303.015,149.655 313.095,154.47 324.495,157.785 C347.1,164.4 345.015,158.415 345.015,179.985 L359.97,179.985 L360,173.04 C360,158.865 358.89,150.66 342.105,146.79 Z M0.03,180 L14.985,180 C14.985,158.43 12.9,164.415 35.505,157.8 C46.92,154.485 57,149.67 61.56,139.68 C63.945,134.46 65.565,125.955 59.745,114.96 C49.02,94.725 46.035,77.01 51.735,67.545 C57.885,57.315 77.265,57.33 83.445,67.725 C93.945,85.35 74.505,112.515 71.955,123.765 L87.675,123.765 C92.625,112.515 101.235,98.925 101.235,79.89 C101.25,57.255 86.505,45 67.53,45 C39.48,45 19.98,71.805 46.53,121.935 C55.245,138.42 37.245,142.32 17.91,146.79 C1.11,150.66 0,158.865 0,173.055 L0.03,180 Z" id="Shape"></path>
            </g>
        </g>
    </g>
</svg>